<svg xmlns="http://www.w3.org/2000/svg" style="display:none" aria-hidden="true">
    
    <symbol id="archive" viewBox="0 0 24 24">
        <path d="M16 14L12.5 17.5L9 14M4.5 7.5V20.5H20.5V7.5L18.5 4.5H6.5L4.5 7.5Z" stroke="currentColor" stroke-width="1.2" fill="none"/>
        <path d="M12.5 10.5V17" stroke="currentColor" stroke-width="1.2" fill="none"/>
        <path d="M4.5 7.5H20.5" stroke="currentColor" stroke-width="1.2" fill="none"/>
    </symbol>

    <symbol id="download" viewBox="0 0 24 24">
        <path fill="currentColor" d="M13 8V2H7v6H2l8 8l8-8h-5zM0 18h20v2H0v-2z"/>
    </symbol>

    <symbol id="eye" viewBox="0 -3 24 24">
        <circle 
            cx="12" cy="12" r="3.5" 
            fill="currentColor" 
        />
        <path
            d="M21 12C21 12 20 4 12 4C4 4 3 12 3 12"
            stroke="currentColor"
            fill="none"
            strokeWidth="1.2"
        />
     </symbol>

    <symbol id="pencil" viewBox="0 0 24 24">
        <rect width="24" height="24" fill="none" />
        <path stroke="currentColor" fill="none" d="M15.6287 5.12132L4.31497 16.435M15.6287 5.12132L19.1642 8.65685M15.6287 5.12132L17.0429 3.70711C17.4334 3.31658 18.0666 3.31658 18.4571 3.70711L20.5784 5.82843C20.969 6.21895 20.969 6.85212 20.5784 7.24264L19.1642 8.65685M7.85051 19.9706L4.31497 16.435M7.85051 19.9706L19.1642 8.65685M7.85051 19.9706L3.25431 21.0312L4.31497 16.435" stroke-linecap="round" stroke-linejoin="round"/>
    </symbol>

    <symbol id="pen-to-square" viewBox="0 0 32 32">
        <path fill="currentColor" d="M7.744 19.189l-1.656 5.797c-0.019 0.062-0.029 0.133-0.029 0.207 0 0.413 0.335 0.748 0.748 0.748 0.001 0 0.001 0 0.002 0h-0c0.001 0 0.002 0 0.003 0 0.075 0 0.146-0.011 0.214-0.033l-0.005 0.001 5.622-1.656c0.124-0.037 0.23-0.101 0.315-0.186l-0 0 17.569-17.394c0.137-0.135 0.223-0.323 0.223-0.531v-0c0-0 0-0.001 0-0.001 0-0.207-0.084-0.395-0.219-0.531l-4.141-4.142c-0.136-0.136-0.324-0.22-0.531-0.22s-0.395 0.084-0.531 0.22v0l-17.394 17.394c-0.088 0.088-0.153 0.198-0.189 0.321l-0.001 0.005zM25.859 3.061l3.078 3.078-3.078 3.047-3.079-3.047zM21.72 7.2l3.073 3.041-12.756 12.628-4.133 1.217 1.229-4.299zM30 13.25c-0.414 0-0.75 0.336-0.75 0.75v0 15.25h-26.5v-26.5h15.25c0.414 0 0.75-0.336 0.75-0.75s-0.336-0.75-0.75-0.75v0h-16c-0.414 0-0.75 0.336-0.75 0.75v0 28c0 0.414 0.336 0.75 0.75 0.75h28c0.414-0 0.75-0.336 0.75-0.75v0-16c-0-0.414-0.336-0.75-0.75-0.75v0z"/>
    </symbol>
    
    <symbol id="star-empty" viewBox="0 0 32 32">
        <path fill="currentColor" d="M16 23.21l7.13 4.13-1.5-7.62a.9.9 0 0 1 .27-.83l5.64-5.29-7.64-.93a.9.9 0 0 1-.71-.52L16 5.1l-3.22 7a.9.9 0 0 1-.71.52l-7.6.93 5.63 5.29a.9.9 0 0 1 .27.83l-1.51 7.67zm0 2l-7.9 4.58a.9.9 0 0 1-1.34-.95l1.73-9-6.65-6.3A.9.9 0 0 1 2.36 12l9-1.08 3.81-8.32a.9.9 0 0 1 1.64 0l3.81 8.32 9 1.08a.9.9 0 0 1 .51 1.55l-6.66 6.3 1.68 9a.9.9 0 0 1-1.34.94z"/>
    </symbol>

    <symbol id="star-full" viewBox="0 0 32 32">
        <path fill="currentColor" d="M16 25.19l-8.24 4.65a.9.9 0 0 1-1.33-1l1.8-9-6.86-6.26A.9.9 0 0 1 1.88 12l9.32-1.08 4-8.39a.9.9 0 0 1 1.63 0l4 8.39L30.12 12a.9.9 0 0 1 .5 1.56l-6.88 6.29 1.74 9a.9.9 0 0 1-1.33 1z"/>
    </symbol>

    <symbol id="trash" viewBox="0 0 24 24">
        <path stroke="currentColor" fill="none" d="M5 6.5H20M10 6.5V4.5C10 3.94772 10.4477 3.5 11 3.5H14C14.5523 3.5 15 3.94772 15 4.5V6.5M12.5 9V17M15.5 9L15 17M9.5 9L10 17M18.5 6.5L17.571 18.5767C17.5309 19.0977 17.0965 19.5 16.574 19.5H8.42603C7.90349 19.5 7.46905 19.0977 7.42898 18.5767L6.5 6.5H18.5Z" stroke-width="1.2"/>
    </symbol>

    <symbol id="xcross" viewBox="-2 -2 18 18">
        <path fill="currentColor" fill-rule="evenodd" clip-rule="evenodd" d="M12.8536 2.85355C13.0488 2.65829 13.0488 2.34171 12.8536 2.14645C12.6583 1.95118 12.3417 1.95118 12.1464 2.14645L7.5 6.79289L2.85355 2.14645C2.65829 1.95118 2.34171 1.95118 2.14645 2.14645C1.95118 2.34171 1.95118 2.65829 2.14645 2.85355L6.79289 7.5L2.14645 12.1464C1.95118 12.3417 1.95118 12.6583 2.14645 12.8536C2.34171 13.0488 2.65829 13.0488 2.85355 12.8536L7.5 8.20711L12.1464 12.8536C12.3417 13.0488 12.6583 13.0488 12.8536 12.8536C13.0488 12.6583 13.0488 12.3417 12.8536 12.1464L8.20711 7.5L12.8536 2.85355Z"/>
    </symbol>

    <symbol id="visit-bill" viewBox="0 0 24 24">
        <path fill="currentColor" d="M18 15v3h-3v2h3v3h2v-3h3v-2h-3v-3zm-4.74 5.74L12 22l-1.5-1.5L9 22l-1.5-1.5L6 22l-1.5-1.5L3 22V2l1.5 1.5L6 2l1.5 1.5L9 2l1.5 1.5L12 2l1.5 1.5L15 2l1.5 1.5L18 2l1.5 1.5L21 2v11.35c-.63-.22-1.3-.35-2-.35V5H5v14h8c0 .57.1 1.22.26 1.74M14.54 15c-.54.58-.93 1.25-1.19 2H6v-2zM6 11h12v2H6zm0-4h12v2H6z"/>
    </symbol>

    <symbol id="visit-prescription" viewBox="0 0 24 24">
        <path fill="currentColor" d="M5 19V5h7v7h7v1c.7 0 1.37.13 2 .35V9l-6-6H5c-1.11 0-2 .89-2 2v14a2 2 0 0 0 2 2h8.35c-.22-.63-.35-1.3-.35-2zm9-14.5l5.5 5.5H14zM23 18v2h-3v3h-2v-3h-3v-2h3v-3h2v3z"/>
    </symbol>


</svg>